name D:\school\WTK\thesis\model\3dpredictsim\Results\debug_batch\Pog_s1_tmt_bCst_d00_k800_ig24_act_TTC.mot
datacolumns 128
datarows 4
range 0.00000000 0.03989701
endheader
time	pelvis_tilt	pelvis_list	pelvis_rotation	pelvis_tx	pelvis_ty	pelvis_tz	hip_flexion_l	hip_adduction_l	hip_rotation_l	hip_flexion_r	hip_adduction_r	hip_rotation_r	knee_angle_l	knee_angle_r	ankle_angle_l	ankle_angle_r	subtalar_angle_l	subtalar_angle_r	tmt_angle_l	tmt_angle_r	mtp_angle_l	mtp_angle_r	lumbar_extension	lumbar_bending	lumbar_rotation	arm_flex_l	arm_add_l	arm_rot_l	arm_flex_r	arm_add_r	arm_rot_r	elbow_flex_l	elbow_flex_r	pro_sup_l	pro_sup_r	glut_med1_l/activation	glut_med2_l/activation	glut_med3_l/activation	glut_min1_l/activation	glut_min2_l/activation	glut_min3_l/activation	semimem_l/activation	semiten_l/activation	bifemlh_l/activation	bifemsh_l/activation	sar_l/activation	add_long_l/activation	add_brev_l/activation	add_mag1_l/activation	add_mag2_l/activation	add_mag3_l/activation	tfl_l/activation	pect_l/activation	grac_l/activation	glut_max1_l/activation	glut_max2_l/activation	glut_max3_l/activation	iliacus_l/activation	psoas_l/activation	quad_fem_l/activation	gem_l/activation	peri_l/activation	rect_fem_l/activation	vas_med_l/activation	vas_int_l/activation	vas_lat_l/activation	med_gas_l/activation	lat_gas_l/activation	soleus_l/activation	tib_post_l/activation	flex_dig_l/activation	flex_hal_l/activation	tib_ant_l/activation	per_brev_l/activation	per_long_l/activation	per_tert_l/activation	ext_dig_l/activation	ext_hal_l/activation	ercspn_l/activation	intobl_l/activation	extobl_l/activation	glut_med1_r/activation	glut_med2_r/activation	glut_med3_r/activation	glut_min1_r/activation	glut_min2_r/activation	glut_min3_r/activation	semimem_r/activation	semiten_r/activation	bifemlh_r/activation	bifemsh_r/activation	sar_r/activation	add_long_r/activation	add_brev_r/activation	add_mag1_r/activation	add_mag2_r/activation	add_mag3_r/activation	tfl_r/activation	pect_r/activation	grac_r/activation	glut_max1_r/activation	glut_max2_r/activation	glut_max3_r/activation	iliacus_r/activation	psoas_r/activation	quad_fem_r/activation	gem_r/activation	peri_r/activation	rect_fem_r/activation	vas_med_r/activation	vas_int_r/activation	vas_lat_r/activation	med_gas_r/activation	lat_gas_r/activation	soleus_r/activation	tib_post_r/activation	flex_dig_r/activation	flex_hal_r/activation	tib_ant_r/activation	per_brev_r/activation	per_long_r/activation	per_tert_r/activation	ext_dig_r/activation	ext_hal_r/activation	ercspn_r/activation	intobl_r/activation	extobl_r/activation	
          0.00000000	         -2.93013939	         -1.58801235	         10.25335282	          0.00000000	          0.84483851	         -0.00364969	        -18.21465863	         -3.99304965	          8.57113796	         34.80090625	          0.40934153	         -0.35270924	        -16.44776659	        -15.36556874	         -9.74438996	          9.24688576	         17.68844805	         -2.54883410	          1.31736876	          0.04606227	         30.55947471	         -0.07180404	         -0.31864894	         -0.92188327	         -4.42229911	          1.45691254	        -13.64993992	         17.06960712	        -14.95103950	        -13.62659177	          6.45585650	         54.05099764	         19.96597195	         86.51662706	         86.51662706	          0.15256166	          0.06389381	          0.05812416	          0.21525954	          0.11161125	          0.06148245	          0.05000517	          0.05000043	          0.05000054	          0.05000121	          0.07513736	          0.13471981	          0.14989934	          0.07598085	          0.05001245	          0.05000145	          0.14307134	          0.09911967	          0.05995254	          0.05000389	          0.05000197	          0.05000151	          0.34454245	          0.48698231	          0.06477795	          0.05014426	          0.06108263	          0.19551562	          0.08289445	          0.12366688	          0.09513597	          0.14130490	          0.20981465	          0.05000003	          0.14364326	          0.19094048	          0.19181270	          0.25504730	          0.44182179	          0.33927951	          0.49644860	          0.42213998	          0.05000019	          0.05000018	          0.06526033	          0.06465500	          0.07397773	          0.07947256	          0.05000017	          0.06246237	          0.06108103	          0.05000691	          0.13108204	          0.06108163	          0.08970412	          0.05000363	          0.05489632	          0.05000824	          0.07331278	          0.17771196	          0.20774051	          0.14209217	          0.05000084	          0.05000213	          0.07673277	          0.05000062	          0.12825086	          0.05003509	          0.05778560	          0.06175595	          0.41647143	          0.06108350	          0.09987750	          0.06108321	          0.21782344	          0.21462484	          0.19167888	          0.05021346	          0.05032043	          0.05000001	          0.05426268	          0.07462081	          0.07457621	          0.65734238	          0.39593588	          0.24145665	          0.51498301	          0.68773460	          0.42609495	          0.05000001	          0.12528243	          0.09710943	
          0.01329900	         -2.92854340	         -1.55535878	         10.37370156	          0.02249172	          0.84304105	         -0.00321733	        -18.22029788	         -4.21730498	          8.33316004	         33.90482383	          0.74471163	         -0.13085701	        -18.21397016	        -16.08584895	        -12.87962680	          8.30286191	         17.95970828	         -2.92082032	          0.91277287	         -0.05172667	         31.45680871	         -0.15004915	         -0.01814164	         -0.69428048	         -4.54555257	          0.70422824	        -13.75245692	         17.27315790	        -16.60895466	        -13.62887967	          6.53941279	         55.51760993	         19.77289685	         86.51662706	         86.51662706	          0.12488243	          0.05230144	          0.05000042	          0.17620423	          0.09136115	          0.05032755	          0.05000583	          0.05000122	          0.05000188	          0.05000026	          0.06150514	          0.15932720	          0.26948151	          0.09764938	          0.06174175	          0.06343659	          0.11711327	          0.08114965	          0.05225447	          0.05005296	          0.05035769	          0.06106878	          0.28203048	          0.39862938	          0.06108233	          0.05000708	          0.05000018	          0.16004226	          0.06785468	          0.10122948	          0.07787506	          0.11566725	          0.17174695	          0.05000000	          0.11758136	          0.15629724	          0.15701120	          0.44274959	          0.52460402	          0.34789111	          0.73309046	          0.55374395	          0.28744826	          0.09189479	          0.05341984	          0.05292434	          0.24430175	          0.29773186	          0.49153393	          0.05112999	          0.05000038	          0.39149315	          0.11502703	          0.05000037	          0.10086727	          0.05000012	          0.05000037	          0.07462190	          0.20444389	          0.23748870	          0.22894820	          0.16721927	          0.05000029	          0.06111747	          0.13605447	          0.21261787	          0.19612461	          0.17307111	          0.06108243	          0.05667258	          0.34090909	          0.05000109	          0.32348342	          0.05000064	          0.17830280	          0.17568457	          0.15690177	          0.06108236	          0.06108243	          0.06108248	          0.06108236	          0.06108220	          0.06108225	          0.56104311	          0.34440775	          0.19764809	          0.52144977	          0.72054443	          0.47192265	          0.06460714	          0.10255183	          0.07949038	
          0.02659800	         -2.92327561	         -1.53078546	         10.44138048	          0.04467621	          0.84104926	         -0.00277673	        -17.92232754	         -4.39043536	          8.10487633	         32.97299755	          1.08641457	          0.11962259	        -20.52152326	        -16.96518790	        -15.27867376	          7.49091484	         18.13829437	         -3.29680047	          0.62464412	         -0.03175932	         30.09220743	         -0.15174761	          0.24485839	         -0.43988260	         -4.64320541	         -0.02280791	        -13.84045199	         17.41149339	        -18.09542610	        -13.64312603	          6.80856244	         56.86891393	         19.39546433	         86.51662706	         86.51662706	          0.28880317	          0.05000009	          0.05000004	          0.24187446	          0.07478512	          0.05000023	          0.05000164	          0.05000011	          0.05000016	          0.05000011	          0.05034659	          0.13042645	          0.25470981	          0.08000394	          0.05054201	          0.05192808	          0.09586490	          0.06643889	          0.05000026	          0.05000088	          0.05000057	          0.05000031	          0.23086035	          0.37107710	          0.05000007	          0.05000038	          0.05000017	          0.13100501	          0.07462367	          0.08286365	          0.07462185	          0.09468117	          0.14058606	          0.05000010	          0.09624800	          0.12793953	          0.12852392	          0.40851947	          0.42942307	          0.29087656	          0.71303160	          0.76346010	          0.23529515	          0.14737874	          0.05000000	          0.05000003	          0.34243772	          0.47899046	          0.58069516	          0.05760668	          0.28871609	          0.32046348	          0.09415712	          0.10477318	          0.08256662	          0.06444516	          0.05000078	          0.06108290	          0.16735065	          0.19440017	          0.22157709	          0.18755666	          0.05000021	          0.05002887	          0.11136966	          0.33522641	          0.27093355	          0.21289906	          0.05000006	          0.05000005	          0.32509860	          0.08519357	          0.26479250	          0.05000002	          0.17911067	          0.24316464	          0.20776927	          0.05000000	          0.05000002	          0.05000000	          0.05000000	          0.05000035	          0.05000015	          0.75851904	          0.44293076	          0.21644550	          0.74634248	          0.85187306	          0.54682281	          0.07821208	          0.08394535	          0.06506805	
          0.03989701	         -2.91528238	         -1.51737512	         10.45350484	          0.06614331	          0.83926385	         -0.00225536	        -17.28057807	         -4.52425618	          7.89229708	         32.25748103	          1.45371026	          0.35143787	        -23.38808765	        -18.08738509	        -16.83748439	          6.49238326	         18.19937157	         -3.68450117	          0.37428645	         -0.03870236	         26.29889706	         -0.25126966	          0.44393933	         -0.16663971	         -4.71878839	         -0.63438502	        -13.89392793	         17.50891587	        -19.29942523	        -13.64928053	          7.27950249	         57.97305387	         18.76175258	         86.51662706	         86.51662706	          0.23640437	          0.05000012	          0.05000004	          0.19799019	          0.06121659	          0.05000020	          0.06583779	          0.05000016	          0.05000042	          0.05000004	          0.05000032	          0.10676310	          0.25909775	          0.25431799	          0.15898331	          0.11136848	          0.07847172	          0.05438531	          0.05000024	          0.05000179	          0.05000125	          0.05000085	          0.18897424	          0.31255656	          0.05000009	          0.05000045	          0.05000010	          0.10723613	          0.06108435	          0.06782931	          0.06108285	          0.07750271	          0.11507886	          0.05000002	          0.07878526	          0.10472692	          0.10520524	          0.55275416	          0.37217807	          0.25656855	          0.65211550	          0.62494188	          0.31015186	          0.17155268	          0.05000001	          0.05000003	          0.43994124	          0.61323330	          0.72916758	          0.06142280	          0.33172016	          0.46690648	          0.07707375	          0.08576381	          0.06758623	          0.05275260	          0.05000018	          0.05000051	          0.13698747	          0.17824648	          0.21497424	          0.18218509	          0.05000034	          0.05000174	          0.09116352	          0.39812050	          0.31454655	          0.23242728	          0.05000005	          0.05000006	          0.26611500	          0.06973777	          0.30852927	          0.05000011	          0.39131120	          0.41247714	          0.35810507	          0.05000003	          0.05000010	          0.05000001	          0.13454680	          0.05000103	          0.05000103	          0.87200202	          0.36256765	          0.17717472	          0.61092991	          0.72294691	          0.61954243	          0.10656929	          0.06871474	          0.05326244	
